<?xml version="1.0" encoding="UTF-8" standalone="no"?>
<!-- Created with Inkscape (http://www.inkscape.org/) -->
<svg xmlns:dc="http://purl.org/dc/elements/1.1/" xmlns:cc="http://creativecommons.org/ns#" xmlns:rdf="http://www.w3.org/1999/02/22-rdf-syntax-ns#" xmlns:svg="http://www.w3.org/2000/svg" xmlns="http://www.w3.org/2000/svg" xmlns:sodipodi="http://sodipodi.sourceforge.net/DTD/sodipodi-0.dtd" xmlns:inkscape="http://www.inkscape.org/namespaces/inkscape" width="100" height="40" id="svg2" version="1.1" inkscape:version="0.91 r13725" sodipodi:docname="hr2.svg">
  <defs id="defs4"/>
  <sodipodi:namedview id="base" pagecolor="#ffffff" bordercolor="#666666" borderopacity="1.0" inkscape:pageopacity="0.0" inkscape:pageshadow="2" inkscape:zoom="2.8284271" inkscape:cx="68.80251" inkscape:cy="101.31523" inkscape:document-units="px" inkscape:current-layer="layer1" showgrid="false" inkscape:showpageshadow="false" inkscape:window-width="1920" inkscape:window-height="1029" inkscape:window-x="0" inkscape:window-y="25" inkscape:window-maximized="1"/>
  <metadata id="metadata7">
    <rdf:RDF>
      <cc:Work rdf:about="">
        <dc:format>image/svg+xml</dc:format>
        <dc:type rdf:resource="http://purl.org/dc/dcmitype/StillImage"/>
        <dc:title/>
      </cc:Work>
    </rdf:RDF>
  </metadata>
  <g inkscape:label="Calque 1" inkscape:groupmode="layer" id="layer1" transform="translate(0,-1012.3622)">
    <path style="fill:#000000;fill-rule:evenodd;stroke:none;stroke-width:1px;stroke-linecap:butt;stroke-linejoin:miter;stroke-opacity:1" d="m 12.383711,1018.647 c -3.7042765,0 -7.2474983,1.0468 -8.8580534,3.1406 -1.6105552,2.0937 -1.6910829,2.6574 -2.1742496,3.1405 -0.48316658,0.4833 -0.56369428,1.5301 -0.56369428,2.9796 0,1.4495 -0.24158333,2.4158 0.24158328,3.7848 0.4831666,1.369 1.5300275,2.6574 2.4158329,3.9458 0.8858054,1.2885 1.3689716,2.4965 2.6574159,2.738 1.2884438,0.2416 2.4158331,0.2416 3.3821658,1.1273 0.9663334,0.8859 2.2547774,1.2885 5.0732484,1.1275 2.818472,-0.1611 5.234304,-0.081 7.408554,-0.8053 2.17425,-0.7248 6.039583,-0.7248 6.925388,-1.369 0.885806,-0.6442 -1.4495,0.8859 -0.402639,2.8991 1.046861,2.0132 3.543221,4.3484 6.603277,4.5095 3.060055,0.1611 6.522748,-2.1743 8.294359,-3.8653 1.771611,-1.6912 2.979527,-3.0601 3.623749,-4.268 0.644223,-1.2079 2.093722,-4.7512 2.415834,-5.4759 0.171415,-0.3857 0.409523,-0.3861 0.596407,-0.4454 0.186723,0.058 0.424084,0.06 0.595151,0.4454 0.322111,0.7247 1.771611,4.268 2.415833,5.4759 0.644222,1.2079 1.852139,2.5768 3.62375,4.268 1.771611,1.691 5.234304,4.0264 8.294361,3.8653 3.060055,-0.1611 5.556416,-2.4963 6.603276,-4.5095 1.046862,-2.0132 -1.288444,-3.5433 -0.402639,-2.8991 0.885806,0.6442 4.751139,0.6442 6.925388,1.369 2.174249,0.7248 4.590083,0.6442 7.408554,0.8053 2.818472,0.161 4.106916,-0.2416 5.073249,-1.1275 0.966334,-0.8857 2.093722,-0.8857 3.382167,-1.1273 1.288444,-0.2415 1.771611,-1.4495 2.657415,-2.738 0.885806,-1.2884 1.932667,-2.5768 2.415834,-3.9458 0.483165,-1.369 0.241583,-2.3353 0.241583,-3.7848 0,-1.4495 -0.08053,-2.4963 -0.563695,-2.9796 -0.483166,-0.4831 -0.563694,-1.0468 -2.174249,-3.1405 -1.610556,-2.0938 -5.153777,-3.1406 -8.858054,-3.1406 -3.704277,0 -7.89172,3.3016 -7.972248,6.0396 -0.08053,2.738 1.449499,6.2811 4.106915,7.328 2.657417,1.0469 4.590083,0 5.475888,-1.3689 0.885806,-1.369 0.644222,-2.6575 -0.241584,-3.8654 -0.885804,-1.2079 -1.610555,0 -2.737943,0.161 -1.127389,0.1611 -1.530027,0.2416 -1.932666,-1.0468 -0.402639,-1.2884 0.483167,-2.2548 1.04686,-3.1406 0.563695,-0.8858 2.415833,-1.0469 4.026389,-1.0469 1.610555,0 4.106916,1.1275 4.429027,1.6106 0.32211,0.4832 1.288444,1.7716 1.4495,3.1406 0.161055,1.369 0,2.3353 -0.40264,3.3822 -0.402639,1.0468 -2.013194,2.899 -2.818471,3.7847 -0.805278,0.8859 -2.254777,1.1275 -2.737944,1.9327 -0.483167,0.8053 0,0.8858 -1.771611,0.8858 -1.771611,0 -1.127388,0.6442 -2.415833,0.8859 -1.288444,0.2415 -2.576888,0.4026 -3.301638,0.1609 -0.72475,-0.2415 -0.966333,-0.1609 -2.335305,-0.322 -1.368973,-0.1611 -1.4495,-0.081 -2.899,-0.5637 -1.449499,-0.4831 -2.415832,-0.6442 -3.140582,-0.9664 -0.724751,-0.322 -1.610556,-0.8053 -2.657416,-0.8053 -1.046862,0 -1.368973,-0.322 -2.415833,-0.6442 -1.046861,-0.322 -1.4495,-0.322 -2.335306,-0.7246 -0.885805,-0.4027 -1.77161,-1.369 -2.737943,-1.8523 -0.966336,-0.4831 -1.368974,0 -2.496363,-0.6442 -1.127389,-0.6442 -1.207915,-1.1273 -3.140583,-1.8521 -1.932666,-0.7248 -7.650137,-3.1406 -7.650137,-3.1406 -0.01309,0.019 -0.01931,0.044 -0.03146,0.063 -0.01224,-0.02 -0.01952,-0.044 -0.03271,-0.063 0,0 -5.717471,2.4158 -7.650137,3.1406 -1.932668,0.7248 -2.013195,1.2079 -3.140583,1.8521 -1.127389,0.6442 -1.530027,0.1611 -2.496361,0.6442 -0.966333,0.4833 -1.852139,1.4496 -2.737943,1.8523 -0.885806,0.4026 -1.288445,0.4026 -2.335306,0.7246 -1.04686,0.3222 -1.368972,0.6442 -2.415833,0.6442 -1.046861,0 -1.932665,0.4833 -2.657416,0.8053 -0.72475,0.3222 -1.691083,0.4833 -3.140582,0.9664 -1.4495,0.4831 -1.530028,0.4026 -2.899,0.5637 -1.368972,0.1611 -1.610556,0.081 -2.335305,0.322 -0.72475,0.2417 -2.013194,0.081 -3.301638,-0.1609 -1.288445,-0.2417 -0.644222,-0.8859 -2.415833,-0.8859 -1.77161,0 -1.288444,-0.081 -1.771611,-0.8858 -0.483166,-0.8052 -1.9326647,-1.0468 -2.7379438,-1.9327 -0.8052771,-0.8857 -2.4158325,-2.7379 -2.8184713,-3.7847 -0.4026387,-1.0469 -0.563694,-2.0132 -0.4026387,-3.3822 0.1610555,-1.369 1.1273886,-2.6574 1.4494996,-3.1406 0.3221111,-0.4831 2.8184719,-1.6106 4.4290262,-1.6106 1.610555,0 3.462694,0.1611 4.026389,1.0469 0.563693,0.8858 1.449499,1.8522 1.04686,3.1406 -0.402639,1.2884 -0.805277,1.2079 -1.932666,1.0468 -1.127388,-0.161 -1.852139,-1.3689 -2.737944,-0.161 -0.885805,1.2079 -1.1273885,2.4964 -0.241583,3.8654 0.885805,1.3689 2.818471,2.4158 5.475888,1.3689 2.657415,-1.0469 4.187443,-4.59 4.106915,-7.328 -0.08053,-2.738 -4.267971,-6.0396 -7.972248,-6.0396 z m 15.471396,7.771 c -0.513365,-0.02 -1.056927,0.081 -1.379038,0.2818 0,0 -2.093722,1.2884 -1.207917,2.738 0.885806,1.4494 2.093722,1.5299 3.62375,0.6442 1.530027,-0.8859 0.563694,-2.6574 0.161055,-3.2211 -0.201319,-0.282 -0.684485,-0.4228 -1.19785,-0.4429 z m 44.334307,0 c -0.513362,0.02 -0.996529,0.1609 -1.197848,0.4429 -0.402638,0.5637 -1.368972,2.3352 0.161055,3.2211 1.530029,0.8857 2.737945,0.8052 3.62375,-0.6442 0.885805,-1.4496 -1.207917,-2.738 -1.207917,-2.738 -0.322111,-0.2013 -0.865674,-0.3019 -1.37904,-0.2818 z m -24.900693,3.4098 c 0.04735,0 0.08933,0 0.124566,0.012 0.200503,0.057 0.238614,0.2053 0.256682,0.3712 0.01334,0.2027 0.02555,0.4091 0.04278,0.5888 -0.754864,1.649 -1.84183,3.9886 -2.795823,5.2407 -1.288445,1.6911 -2.415834,3.2211 -4.267972,4.5901 -1.852139,1.369 -3.382166,1.691 -4.831666,0.8857 -1.449499,-0.8052 -2.496361,-2.4158 -2.093722,-3.7042 0.402639,-1.2884 1.610555,-2.1743 2.737944,-2.4158 1.127389,-0.2416 1.530028,-0.7248 2.657416,-1.6106 1.127389,-0.8858 1.852139,-0.9664 3.704278,-1.8521 1.736379,-0.8305 3.755393,-2.0854 4.465516,-2.1064 z m 5.465822,0 c 0.710123,0.021 2.730394,1.2758 4.466773,2.1063 1.852139,0.8858 2.576889,0.9663 3.704278,1.8521 1.127389,0.8859 1.530027,1.369 2.657418,1.6106 1.127389,0.2415 2.335305,1.1274 2.737944,2.4158 0.402639,1.2884 -0.644223,2.899 -2.093722,3.7042 -1.4495,0.8053 -2.979528,0.4833 -4.831668,-0.8857 -1.852138,-1.369 -2.979527,-2.899 -4.267971,-4.5901 -0.931658,-1.2228 -1.985503,-3.4762 -2.745493,-5.1336 0.0083,-0.2177 0.0041,-0.4503 -0.01006,-0.682 0.01697,-0.1722 0.0531,-0.3262 0.259199,-0.385 0.03523,-0.01 0.07596,-0.014 0.123309,-0.012 z" id="path3354" inkscape:connector-curvature="0"/>
  </g>
</svg>